<svg width="32" height="32" viewBox="0 0 32 32" fill="none" xmlns="http://www.w3.org/2000/svg">
<path fill-rule="evenodd" clip-rule="evenodd" d="M23.1093 2.60222C21.5302 2.23778 18.9345 2 16 2C13.0655 2 10.4698 2.23778 8.89072 2.60222C5.74228 3.2629 3.2629 5.74228 2.60222 8.89072C2.23778 10.4698 2 13.0655 2 16C2 18.9345 2.23778 21.5302 2.60222 23.1093C3.2629 26.2577 5.74228 28.7371 8.89072 29.3978C10.4698 29.7622 13.0655 30 16 30C18.9345 30 21.5302 29.7622 23.1093 29.3978C26.2577 28.7371 28.7371 26.2577 29.3978 23.1093C29.7622 21.5302 30 18.9345 30 16C30 13.0655 29.7622 10.4698 29.3978 8.89072C28.7371 5.74228 26.2577 3.2629 23.1093 2.60222Z" fill="#00B388"/>
<mask id="mask0_3998_31745" style="mask-type:alpha" maskUnits="userSpaceOnUse" x="2" y="2" width="28" height="28">
<path d="M23.1093 2.60222C21.5302 2.23778 18.9345 2 16 2C13.0655 2 10.4698 2.23778 8.89072 2.60222C5.74228 3.2629 3.2629 5.74228 2.60222 8.89072C2.23778 10.4698 2 13.0655 2 16C2 18.9345 2.23778 21.5302 2.60222 23.1093C3.2629 26.2577 5.74228 28.7371 8.89072 29.3978C10.4698 29.7622 13.0655 30 16 30C18.9345 30 21.5302 29.7622 23.1093 29.3978C26.2577 28.7371 28.7371 26.2577 29.3978 23.1093C29.7622 21.5302 30 18.9345 30 16C30 13.0655 29.7622 10.4698 29.3978 8.89072C28.7371 5.74228 26.2577 3.2629 23.1093 2.60222Z" fill="white"/>
</mask>
<g mask="url(#mask0_3998_31745)">
<path fill-rule="evenodd" clip-rule="evenodd" d="M19.3644 23.4935C19.0987 22.8611 18.5348 22.3849 17.8486 22.2409C17.4381 22.1462 16.7632 22.0844 16.0002 22.0844C15.2372 22.0844 14.5624 22.1462 14.1518 22.2409C13.4706 22.3839 12.9098 22.8543 12.6418 23.48C12.5488 23.697 12.3266 23.8294 12.0915 23.8078C12.0328 23.8024 11.9821 23.7976 11.9395 23.7933C10.8416 23.684 9.97865 23.5315 9.47728 23.3535C9.47646 23.3531 9.47547 23.3527 9.47429 23.3522C9.13785 23.2258 8.89844 22.9011 8.89844 22.5205C8.89844 22.511 8.89859 22.5016 8.89888 22.4922C8.89965 22.4769 8.90055 22.4612 8.90158 22.4452C8.90188 22.4417 8.90219 22.4381 8.90253 22.4346C8.90349 22.4246 8.90409 22.415 8.90433 22.4057C8.9898 21.263 9.68374 18.5878 10.7202 15.5344C11.9052 12.0438 13.1443 9.21778 13.7031 8.66658C13.7923 8.57371 13.8952 8.49593 14.009 8.43594C14.0534 8.41059 14.1096 8.38634 14.1764 8.36346C14.1782 8.36286 14.1799 8.36226 14.1817 8.36167C14.5488 8.23751 15.2254 8.15436 15.9995 8.15436C16.775 8.15436 17.4516 8.23751 17.8181 8.36144C17.8205 8.36226 17.8222 8.36286 17.824 8.36346C17.8908 8.38634 17.947 8.41059 17.9914 8.43594C18.1052 8.49593 18.2081 8.57371 18.2965 8.66558C18.2968 8.66588 18.2971 8.66621 18.2973 8.66658C18.8561 9.21778 20.0953 12.0438 21.2802 15.5344C22.3167 18.5878 23.0106 21.263 23.0961 22.4057C23.0963 22.415 23.0969 22.4246 23.0979 22.4346C23.0982 22.4381 23.0985 22.4417 23.0988 22.4452C23.0999 22.4612 23.1008 22.4769 23.1015 22.4922C23.1018 22.5016 23.102 22.511 23.102 22.5205C23.102 22.9011 22.8626 23.2258 22.5261 23.3522C22.5249 23.3527 22.524 23.3531 22.5231 23.3535C22.0222 23.5314 21.1603 23.6838 20.0638 23.7931C20.016 23.7978 19.9582 23.8033 19.8903 23.8095L19.8903 23.8095C19.6649 23.8301 19.4521 23.7022 19.3644 23.4935Z" fill="white"/>
</g>
</svg>
